<?xml version="1.0" encoding="utf-8"?>
<!-- Generator: Adobe Illustrator 21.0.2, SVG Export Plug-In . SVG Version: 6.00 Build 0)  -->
<svg version="1.1" id="Layer_1" xmlns="http://www.w3.org/2000/svg" xmlns:xlink="http://www.w3.org/1999/xlink" x="0px" y="0px"
	 viewBox="0 0 800 800" style="enable-background:new 0 0 800 800;" xml:space="preserve">
<style type="text/css">
	.st0{fill:#1B1B1B;}
	.st1{fill:#FFD75C;}
</style>
<g>
	<path class="st0" d="M398.5,795c-53.4,0-105.2-10.5-153.9-31.1c-47.1-19.9-89.4-48.4-125.7-84.8C82.5,642.8,54,600.5,34.1,553.4
		C13.5,504.7,3,452.9,3,399.5s10.5-105.2,31.1-153.9c19.9-47.1,48.4-89.4,84.8-125.7S197.5,55,244.6,35.1
		C293.3,14.5,345.1,4,398.5,4s105.2,10.5,153.9,31.1c47.1,19.9,89.4,48.4,125.7,84.8c36.3,36.3,64.8,78.6,84.8,125.7
		c20.6,48.8,31.1,100.6,31.1,153.9s-10.5,105.2-31.1,153.9c-19.9,47.1-48.4,89.4-84.8,125.7c-36.3,36.3-78.6,64.8-125.7,84.8
		C503.7,784.5,451.9,795,398.5,795z"/>
	<path class="st1" d="M398.5,5c53.3,0,104.9,10.4,153.6,31c47,19.9,89.2,48.3,125.4,84.5c36.2,36.2,64.7,78.4,84.5,125.4
		c20.6,48.6,31,100.3,31,153.6s-10.4,104.9-31,153.6c-19.9,47-48.3,89.2-84.5,125.4c-36.2,36.2-78.4,64.7-125.4,84.5
		c-48.6,20.6-100.3,31-153.6,31s-104.9-10.4-153.6-31c-47-19.9-89.2-48.3-125.4-84.5C83.3,642.2,54.9,600,35,553.1
		C14.4,504.4,4,452.8,4,399.5s10.4-104.9,31-153.6c19.9-47,48.3-89.2,84.5-125.4C155.8,84.3,198,55.9,244.9,36
		C293.6,15.4,345.2,5,398.5,5 M398.5,3C179.5,3,2,180.5,2,399.5S179.5,796,398.5,796S795,618.5,795,399.5S617.5,3,398.5,3L398.5,3z"
		/>
</g>
</svg>
